<?xml version="1.0" encoding="UTF-8"?>
<svg xmlns="http://www.w3.org/2000/svg" xmlns:xlink="http://www.w3.org/1999/xlink" width="2835" height="2835" viewBox="0 0 2835 2835">
<path fill-rule="evenodd" fill="rgb(100%, 100%, 100%)" fill-opacity="1" d="M 0 0.351562 L 2834.648438 0.351562 L 2834.648438 2835 L 0 2835 L 0 0.351562 "/>
<path fill-rule="nonzero" fill="rgb(16.868591%, 21.580505%, 41.967773%)" fill-opacity="1" d="M 2520.101562 1856.160156 C 2465.890625 1725.058594 2230.800781 1773.808594 1893.578125 1816.25 L 1940.898438 1692.5 L 1963.320312 1633.609375 L 2033.980469 1448.75 L 2040.738281 1431.070312 L 2242.75 902.179688 C 2266.019531 791.488281 2210.898438 679.039062 2109.179688 630.359375 C 1952.859375 555.550781 1723.351562 476.449219 1439.378906 472.480469 C 1135.308594 468.320312 889.753906 552.039062 726.214844 630.101562 C 713.929688 635.949219 702.167969 642.78125 690.988281 650.640625 C 679.871094 658.511719 669.40625 667.210938 659.65625 676.769531 C 649.972656 686.390625 641.132812 696.71875 633.140625 707.769531 C 625.144531 718.890625 618.125 730.589844 612.078125 742.808594 C 605.96875 755.089844 601.027344 767.761719 597.066406 780.828125 C 593.164062 793.960938 590.304688 807.289062 588.613281 820.871094 C 586.859375 834.390625 586.273438 848.039062 586.859375 861.691406 C 587.441406 875.410156 589.070312 888.921875 591.929688 902.308594 L 793.878906 1431.070312 L 810.582031 1474.820312 L 871.289062 1633.609375 L 901.773438 1713.558594 L 948.640625 1836.144531 C 540.324219 1805.851562 346.558594 1755.871094 310.035156 1876.964844 C 301.320312 1905.953125 304.3125 1937.148438 317.050781 1964.640625 C 522.253906 2407.148438 2192.511719 2577.382812 2514.378906 1965.425781 C 2532.128906 1931.625 2534.730469 1891.519531 2520.101562 1856.160156 "/>
<path fill-rule="nonzero" fill="rgb(83.984375%, 7.054138%, 10.205078%)" fill-opacity="1" d="M 2033.980469 1448.75 L 1963.320312 1633.609375 L 1940.898438 1692.5 C 1771.519531 1712.648438 1583.28125 1729.808594 1382.050781 1729.808594 C 1201.941406 1729.808594 1042.300781 1722.851562 901.773438 1713.488281 L 871.289062 1633.609375 L 810.582031 1474.820312 C 972.105469 1487.300781 1161.769531 1497.628906 1382.050781 1497.628906 C 1620.910156 1497.628906 1841.519531 1473.519531 2033.980469 1448.75 "/>
<path fill-rule="nonzero" fill="rgb(100%, 68.164062%, 5.488586%)" fill-opacity="1" d="M 1479.421875 1742.808594 L 1355.269531 1742.808594 C 1350.71875 1742.808594 1346.171875 1742.351562 1341.679688 1741.441406 C 1337.199219 1740.53125 1332.839844 1739.230469 1328.621094 1737.480469 C 1324.390625 1735.71875 1320.359375 1733.570312 1316.601562 1730.980469 C 1312.761719 1728.441406 1309.25 1725.578125 1306 1722.328125 C 1302.75 1719.078125 1299.890625 1715.5 1297.359375 1711.738281 C 1294.820312 1707.898438 1292.679688 1703.871094 1290.921875 1699.648438 C 1289.160156 1695.359375 1287.800781 1691 1286.960938 1686.519531 C 1286.050781 1682.03125 1285.589844 1677.480469 1285.589844 1672.871094 L 1285.589844 1548.328125 C 1285.589844 1543.71875 1286.050781 1539.171875 1286.960938 1534.679688 C 1287.800781 1530.191406 1289.160156 1525.839844 1290.921875 1521.550781 C 1292.679688 1517.328125 1294.820312 1513.289062 1297.359375 1509.460938 C 1299.890625 1505.691406 1302.75 1502.121094 1306 1498.871094 C 1309.25 1495.621094 1312.761719 1492.761719 1316.601562 1490.21875 C 1320.359375 1487.621094 1324.390625 1485.46875 1328.621094 1483.71875 C 1332.839844 1481.96875 1337.199219 1480.671875 1341.679688 1479.761719 C 1346.171875 1478.851562 1350.71875 1478.390625 1355.269531 1478.390625 L 1479.421875 1478.390625 C 1483.960938 1478.390625 1488.519531 1478.851562 1493 1479.761719 C 1497.480469 1480.671875 1501.839844 1481.96875 1506.070312 1483.71875 C 1510.289062 1485.46875 1514.320312 1487.621094 1518.089844 1490.21875 C 1521.921875 1492.761719 1525.429688 1495.621094 1528.679688 1498.871094 C 1531.871094 1502.121094 1534.789062 1505.691406 1537.328125 1509.460938 C 1539.859375 1513.289062 1542.011719 1517.328125 1543.761719 1521.550781 C 1545.519531 1525.839844 1546.820312 1530.191406 1547.730469 1534.679688 C 1548.640625 1539.171875 1549.089844 1543.71875 1549.089844 1548.328125 L 1549.089844 1672.871094 C 1549.089844 1677.480469 1548.640625 1682.03125 1547.730469 1686.519531 C 1546.820312 1691 1545.519531 1695.359375 1543.761719 1699.648438 C 1542.011719 1703.871094 1539.859375 1707.898438 1537.328125 1711.738281 C 1534.789062 1715.5 1531.871094 1719.078125 1528.679688 1722.328125 C 1525.429688 1725.578125 1521.921875 1728.441406 1518.089844 1730.980469 C 1514.320312 1733.570312 1510.289062 1735.71875 1506.070312 1737.480469 C 1501.839844 1739.230469 1497.480469 1740.53125 1493 1741.441406 C 1488.519531 1742.351562 1483.960938 1742.808594 1479.421875 1742.808594 Z M 1355.269531 1509.980469 C 1350.199219 1509.980469 1345.328125 1510.949219 1340.640625 1512.910156 C 1335.960938 1514.859375 1331.871094 1517.648438 1328.230469 1521.230469 C 1324.648438 1524.800781 1321.929688 1528.960938 1319.96875 1533.640625 C 1318.03125 1538.320312 1317.050781 1543.261719 1317.050781 1548.328125 L 1317.050781 1672.871094 C 1317.050781 1677.941406 1318.03125 1682.871094 1319.96875 1687.558594 C 1321.929688 1692.238281 1324.648438 1696.398438 1328.230469 1699.96875 C 1331.871094 1703.550781 1335.960938 1706.339844 1340.640625 1708.289062 C 1345.328125 1710.238281 1350.199219 1711.21875 1355.269531 1711.21875 L 1479.421875 1711.21875 C 1484.480469 1711.21875 1489.359375 1710.238281 1494.039062 1708.289062 C 1498.71875 1706.339844 1502.808594 1703.550781 1506.390625 1699.96875 C 1509.960938 1696.398438 1512.761719 1692.238281 1514.710938 1687.558594 C 1516.660156 1682.808594 1517.570312 1677.941406 1517.628906 1672.871094 L 1517.628906 1548.328125 C 1517.570312 1543.261719 1516.660156 1538.390625 1514.710938 1533.640625 C 1512.761719 1528.960938 1509.960938 1524.800781 1506.390625 1521.230469 C 1502.808594 1517.648438 1498.71875 1514.859375 1494.039062 1512.910156 C 1489.359375 1510.949219 1484.480469 1509.980469 1479.421875 1509.980469 L 1355.269531 1509.980469 "/>
</svg>
