<svg id="Слой_1" data-name="Слой 1" xmlns="http://www.w3.org/2000/svg" viewBox="0 0 542.56 540.14">
  <defs>
    <style>
      .cls-1 {
        fill: #fff;
      }

      .cls-2 {
        fill: #22292d;
      }

      .cls-3 {
        fill: #12171b;
      }

      .cls-4 {
        fill: #967c2f;
      }
    </style>
  </defs>
  <g>
    <rect class="cls-1" x="168.77" y="208.62" width="64.09" height="71.23" rx="2.83"/>
    <rect class="cls-1" x="309.7" y="208.62" width="64.09" height="71.23" rx="2.83"/>
    <path class="cls-2" d="M271.28,105.9A164.17,164.17,0,1,0,435.45,270.07,164.17,164.17,0,0,0,271.28,105.9ZM232.85,277a2.83,2.83,0,0,1-2.83,2.83H171.6a2.83,2.83,0,0,1-2.83-2.83V211.45a2.83,2.83,0,0,1,2.83-2.83h1.57a2.82,2.82,0,0,1,2.67,1.91l3.93,11.33a2.84,2.84,0,0,0,2.67,1.88h36.74a2.84,2.84,0,0,0,2.67-1.88l3.93-11.34a2.82,2.82,0,0,1,2.67-1.9H230a2.83,2.83,0,0,1,2.83,2.83Zm140.94,0a2.84,2.84,0,0,1-2.84,2.83H312.54A2.84,2.84,0,0,1,309.7,277V211.45a2.84,2.84,0,0,1,2.84-2.83h1.56a2.83,2.83,0,0,1,2.68,1.9l3.92,11.34a2.86,2.86,0,0,0,2.67,1.88h36.75a2.85,2.85,0,0,0,2.67-1.88l3.92-11.34a2.83,2.83,0,0,1,2.68-1.9H371a2.84,2.84,0,0,1,2.84,2.83Z"/>
    <path class="cls-3" d="M540,292.08,473.36,285a2.83,2.83,0,0,1-2.52-3q.35-5.91.35-11.92t-.35-11.92a2.83,2.83,0,0,1,2.52-3L540,248.06a2.83,2.83,0,0,0,2.46-3.45l-15.81-69.28a2.84,2.84,0,0,0-3.72-2l-63.08,22.53a2.83,2.83,0,0,1-3.57-1.61,199.43,199.43,0,0,0-10.37-21.48,2.84,2.84,0,0,1,1-3.8l57-35.29a2.84,2.84,0,0,0,.72-4.18L460.27,73.91a2.83,2.83,0,0,0-4.23-.23l-47.11,47.71a2.83,2.83,0,0,1-3.92.1,199.42,199.42,0,0,0-18.63-14.88,2.84,2.84,0,0,1-.77-3.84l36-56.53a2.84,2.84,0,0,0-1.16-4.08l-64-30.83A2.84,2.84,0,0,0,352.53,13L330.81,76.33a2.85,2.85,0,0,1-3.49,1.8,196.57,196.57,0,0,0-23.25-5.29,2.84,2.84,0,0,1-2.37-3.13l7.92-66.54A2.82,2.82,0,0,0,306.81,0H235.75a2.84,2.84,0,0,0-2.82,3.17l7.92,66.54a2.83,2.83,0,0,1-2.36,3.13,197.19,197.19,0,0,0-23.26,5.29,2.84,2.84,0,0,1-3.48-1.8L190,13a2.83,2.83,0,0,0-3.91-1.63l-64,30.83a2.83,2.83,0,0,0-1.16,4.08l36,56.53a2.83,2.83,0,0,1-.77,3.84,202.07,202.07,0,0,0-18.63,14.88,2.82,2.82,0,0,1-3.91-.1L86.52,73.68a2.85,2.85,0,0,0-4.24.22L38,129.46a2.83,2.83,0,0,0,.72,4.18l57,35.29a2.82,2.82,0,0,1,1,3.8,199.36,199.36,0,0,0-10.36,21.48,2.84,2.84,0,0,1-3.57,1.61L19.6,173.29a2.83,2.83,0,0,0-3.71,2L.07,244.61a2.84,2.84,0,0,0,2.47,3.45l66.66,7.09a2.83,2.83,0,0,1,2.52,3c-.23,3.94-.36,7.92-.36,11.92s.13,8,.36,11.92a2.83,2.83,0,0,1-2.52,3L2.54,292.08a2.84,2.84,0,0,0-2.47,3.45l15.81,69.28a2.84,2.84,0,0,0,3.72,2l63.09-22.52a2.83,2.83,0,0,1,3.57,1.6,198.45,198.45,0,0,0,10.36,21.48,2.82,2.82,0,0,1-1,3.8L38.7,406.5a2.84,2.84,0,0,0-.73,4.18l44.31,55.56a2.84,2.84,0,0,0,4.23.22l47.11-47.71a2.83,2.83,0,0,1,3.92-.1,202.07,202.07,0,0,0,18.63,14.88,2.82,2.82,0,0,1,.77,3.84l-36,56.53a2.83,2.83,0,0,0,1.16,4.08l64,30.83a2.83,2.83,0,0,0,3.91-1.63l21.73-63.37a2.84,2.84,0,0,1,3.49-1.8,196.57,196.57,0,0,0,23.25,5.29,2.83,2.83,0,0,1,2.36,3.13L232.93,537a2.84,2.84,0,0,0,2.82,3.17h71.06a2.83,2.83,0,0,0,2.81-3.17l-7.92-66.54a2.84,2.84,0,0,1,2.37-3.13A196.57,196.57,0,0,0,327.32,462a2.83,2.83,0,0,1,3.48,1.8l21.73,63.37a2.83,2.83,0,0,0,3.91,1.63l64-30.83a2.84,2.84,0,0,0,1.16-4.08l-36-56.53a2.83,2.83,0,0,1,.77-3.84A199.42,199.42,0,0,0,405,418.65a2.84,2.84,0,0,1,3.92.1L456,466.46a2.84,2.84,0,0,0,4.23-.22l44.31-55.56a2.84,2.84,0,0,0-.72-4.18l-57-35.29a2.84,2.84,0,0,1-1-3.8,198.52,198.52,0,0,0,10.37-21.48,2.82,2.82,0,0,1,3.57-1.6L523,366.85a2.84,2.84,0,0,0,3.72-2l15.81-69.28A2.83,2.83,0,0,0,540,292.08ZM271.28,434.24A164.17,164.17,0,1,1,435.45,270.07,164.17,164.17,0,0,1,271.28,434.24Z"/>
    <path class="cls-4" d="M407.81,203.08A112.17,112.17,0,0,0,397,185.53c-13.46-18-31.43-31.07-50.61-36.78-20-5.95-39-3.29-53.38,7.49A54.08,54.08,0,0,0,274,183.67a2.82,2.82,0,0,1-5.38,0,54.16,54.16,0,0,0-19.1-27.43c-14.42-10.78-33.38-13.44-53.38-7.49-19.18,5.71-37.15,18.77-50.61,36.78A112.29,112.29,0,0,0,134.75,203,8,8,0,0,0,138,213.6a7.75,7.75,0,0,0,10.54-3.48,95.49,95.49,0,0,1,9.37-15.31c11.47-15.36,26.61-26.44,42.61-31.2,15.19-4.52,29.28-2.73,39.69,5,9.81,7.33,15.51,19.49,16,34.23,0,.09,0,.18,0,.27.58,39.84,3.9,182.73,4,187.57-.09,12.66-4.7,23-13,29.22-18.07,13.5-48.25,3.78-67.27-21.68s-19.8-57.15-1.73-70.65c15.76-11.78,36.09-8.07,54.4,9.91.41.43.86.93,1.06,1.16,4.49,6.34,6.31,13,5.12,18.75-.83,4-3,6.59-4.65,7.62-3.28,2-11.59,1-14.15-2.38A8.13,8.13,0,0,1,218.4,357a5.71,5.71,0,0,1,2.15-4,5.07,5.07,0,0,1,2.22-.95,7.75,7.75,0,1,0-2.34-15.33A20.78,20.78,0,0,0,203,355.48,23.6,23.6,0,0,0,207.65,372c7.79,10.42,25.3,12,34.6,6.37,5.92-3.59,10.22-10.06,11.81-17.76,2.07-10.07-.7-21.08-7.8-31a25.35,25.35,0,0,0-2.41-2.78l-.19-.18C219.75,303,191.14,298.66,169,315.2c-12.42,9.28-19.24,24.25-19.21,42.16,0,17.05,6.36,34.87,17.8,50.19s26.75,26.43,43.09,31.29a61.32,61.32,0,0,0,17.48,2.66,46.76,46.76,0,0,0,28.4-9.13,45.06,45.06,0,0,0,12.25-14,2.82,2.82,0,0,1,4.89,0,45.22,45.22,0,0,0,12.26,14,46.75,46.75,0,0,0,28.39,9.13,61.22,61.22,0,0,0,17.48-2.66c16.35-4.86,31.65-16,43.09-31.29s17.77-33.14,17.8-50.19c0-17.91-6.78-32.88-19.21-42.16-22.13-16.54-50.73-12.18-74.65,11.38l-.18.18a24.36,24.36,0,0,0-2.42,2.79c-7.1,9.93-9.86,20.94-7.79,31,1.58,7.7,5.88,14.17,11.8,17.76,9.31,5.64,26.81,4.05,34.6-6.37,7.58-10.14,6-24.22-3.62-31.38a20.86,20.86,0,0,0-8.44-3.73,8,8,0,0,0-9.44,5.64,7.73,7.73,0,0,0,6.3,9.54,5.13,5.13,0,0,1,2.3,1c2.74,2,2.95,6.39.48,9.69s-10.86,4.37-14.15,2.38c-1.7-1-3.82-3.58-4.65-7.62-1.18-5.76.64-12.41,5.13-18.76.19-.22.65-.72,1-1.15,18.31-18,38.64-21.69,54.41-9.91,8.4,6.27,13,16.83,13,29.71,0,13.74-5.25,28.28-14.71,40.94-19,25.46-49.2,35.18-67.27,21.68-8.29-6.19-12.9-16.56-13-29.22.11-4.84,3.44-147.69,4-187.56a2.62,2.62,0,0,0,0-.28c.54-14.74,6.23-26.9,16.05-34.23,10.4-7.78,24.49-9.57,39.68-5,16,4.76,31.14,15.84,42.61,31.2A96.27,96.27,0,0,1,394,210.12a7.75,7.75,0,0,0,11.19,3.1A7.94,7.94,0,0,0,407.81,203.08Z"/>
    <g>
      <path class="cls-4" d="M235.29,517.17,232.93,537a2.84,2.84,0,0,0,2.82,3.17h71.06a2.83,2.83,0,0,0,2.81-3.17l-2.35-19.8a2.83,2.83,0,0,0-2.82-2.5H238.1A2.83,2.83,0,0,0,235.29,517.17Z"/>
      <path class="cls-4" d="M131.64,477.08,120.93,493.9a2.83,2.83,0,0,0,1.16,4.08l64,30.83a2.83,2.83,0,0,0,3.91-1.63l6.48-18.87a2.84,2.84,0,0,0-1.46-3.47l-59.78-28.79A2.84,2.84,0,0,0,131.64,477.08Z"/>
      <path class="cls-4" d="M55.65,396,38.7,406.5a2.84,2.84,0,0,0-.73,4.18l44.31,55.56a2.84,2.84,0,0,0,4.23.22l14-14.19a2.83,2.83,0,0,0,.2-3.76L59.36,396.64A2.84,2.84,0,0,0,55.65,396Z"/>
      <path class="cls-4" d="M22.37,290,2.54,292.08a2.84,2.84,0,0,0-2.47,3.45l15.82,69.28a2.83,2.83,0,0,0,3.71,2l18.79-6.71a2.83,2.83,0,0,0,1.81-3.3L25.43,292.16A2.83,2.83,0,0,0,22.37,290Z"/>
      <path class="cls-4" d="M38.39,180,19.6,173.29a2.83,2.83,0,0,0-3.71,2L.07,244.61a2.84,2.84,0,0,0,2.47,3.45l19.83,2.12A2.83,2.83,0,0,0,25.43,248L40.2,183.3A2.83,2.83,0,0,0,38.39,180Z"/>
      <path class="cls-4" d="M100.53,87.87l-14-14.19a2.85,2.85,0,0,0-4.24.22L38,129.46a2.84,2.84,0,0,0,.73,4.18l16.95,10.51a2.84,2.84,0,0,0,3.71-.64l41.37-51.88A2.84,2.84,0,0,0,100.53,87.87Z"/>
      <path class="cls-4" d="M196.49,31.83,190,13a2.83,2.83,0,0,0-3.91-1.63l-64,30.83a2.84,2.84,0,0,0-1.17,4.08l10.72,16.82a2.83,2.83,0,0,0,3.62,1L195,35.3A2.83,2.83,0,0,0,196.49,31.83Z"/>
      <path class="cls-4" d="M307.27,23l2.35-19.81A2.82,2.82,0,0,0,306.81,0H235.75a2.84,2.84,0,0,0-2.82,3.17L235.29,23a2.83,2.83,0,0,0,2.81,2.5h66.35A2.84,2.84,0,0,0,307.27,23Z"/>
      <path class="cls-4" d="M410.91,63.06l10.72-16.82a2.84,2.84,0,0,0-1.16-4.08l-64-30.83A2.83,2.83,0,0,0,352.53,13l-6.47,18.87a2.83,2.83,0,0,0,1.45,3.47l59.78,28.79A2.84,2.84,0,0,0,410.91,63.06Z"/>
      <path class="cls-4" d="M486.9,144.15l17-10.51a2.84,2.84,0,0,0,.72-4.18L460.27,73.9a2.84,2.84,0,0,0-4.23-.22L442,87.87a2.84,2.84,0,0,0-.2,3.76l41.37,51.87A2.84,2.84,0,0,0,486.9,144.15Z"/>
      <path class="cls-4" d="M520.19,250.17,540,248.06a2.83,2.83,0,0,0,2.46-3.45l-15.81-69.28a2.84,2.84,0,0,0-3.72-2L504.17,180a2.83,2.83,0,0,0-1.81,3.3L517.12,248A2.84,2.84,0,0,0,520.19,250.17Z"/>
      <path class="cls-4" d="M504.17,360.14,523,366.85a2.84,2.84,0,0,0,3.72-2l15.81-69.28a2.83,2.83,0,0,0-2.46-3.45L520.19,290a2.84,2.84,0,0,0-3.07,2.19l-14.76,64.69A2.83,2.83,0,0,0,504.17,360.14Z"/>
      <path class="cls-4" d="M442,452.27l14,14.19a2.84,2.84,0,0,0,4.23-.22l44.31-55.56a2.84,2.84,0,0,0-.72-4.18L486.91,396a2.84,2.84,0,0,0-3.71.64l-41.37,51.88A2.83,2.83,0,0,0,442,452.27Z"/>
      <path class="cls-4" d="M346.06,508.31l6.47,18.87a2.83,2.83,0,0,0,3.91,1.63l64-30.83a2.84,2.84,0,0,0,1.16-4.08l-10.71-16.82a2.85,2.85,0,0,0-3.63-1l-59.78,28.79A2.84,2.84,0,0,0,346.06,508.31Z"/>
    </g>
    <circle class="cls-3" cx="200.81" cy="250.63" r="17.49"/>
    <circle class="cls-3" cx="341.75" cy="250.63" r="17.49"/>
  </g>
</svg>
